<?xml version="1.0" encoding="UTF-8" standalone="no"?>
<!-- Created with Inkscape (http://www.inkscape.org/) -->

<svg
   width="600"
   height="600"
   viewBox="0 0 150 150"
   version="1.1"
   id="svg5"
   inkscape:version="1.2.1 (9c6d41e410, 2022-07-14)"
   sodipodi:docname="favicon.svg"
   xml:space="preserve"
   xmlns:inkscape="http://www.inkscape.org/namespaces/inkscape"
   xmlns:sodipodi="http://sodipodi.sourceforge.net/DTD/sodipodi-0.dtd"
   xmlns="http://www.w3.org/2000/svg"
   xmlns:svg="http://www.w3.org/2000/svg"><sodipodi:namedview
     id="namedview7"
     pagecolor="#ffffff"
     bordercolor="#000000"
     borderopacity="0.25"
     inkscape:showpageshadow="false"
     inkscape:pageopacity="0.0"
     inkscape:pagecheckerboard="0"
     inkscape:deskcolor="#d1d1d1"
     inkscape:document-units="px"
     showgrid="false"
     inkscape:zoom="0.70710678"
     inkscape:cx="32.526912"
     inkscape:cy="414.36457"
     inkscape:window-width="1920"
     inkscape:window-height="1046"
     inkscape:window-x="-11"
     inkscape:window-y="-11"
     inkscape:window-maximized="1"
     inkscape:current-layer="layer1" /><defs
     id="defs2" /><g
     inkscape:label="Layer 1"
     inkscape:groupmode="layer"
     id="layer1"><rect
       style="opacity:1;fill:#00d1b2;fill-opacity:1;stroke-width:1.03392"
       id="rect355"
       width="150"
       height="150"
       x="-150"
       y="0" /><path
       id="path3640"
       style="fill:#00d1b2;fill-opacity:1;stroke:none;stroke-width:3.74179;stroke-linecap:round;stroke-linejoin:round;stroke-dasharray:none;stroke-opacity:1"
       d="M 74.999912,44.790529 A 20.138649,20.138649 0 0 0 54.861486,64.929324 20.138649,20.138649 0 0 0 58.252121,76.10061 20.138649,20.138649 0 0 1 57.636035,75.121314 h -0.0078 l 3.834971,6.642408 13.536216,23.445748 13.536582,-23.445748 3.83497,-6.642408 h -0.007 a 20.138649,20.138649 0 0 1 -0.61608,0.979296 20.138649,20.138649 0 0 0 3.39062,-11.171286 20.138649,20.138649 0 0 0 -20.138792,-20.138795 z m 0,10.357887 a 9.7806335,9.7806335 0 0 1 9.780906,9.780908 9.7806335,9.7806335 0 0 1 -9.780906,9.78054 9.7806335,9.7806335 0 0 1 -9.780542,-9.78054 9.7806335,9.7806335 0 0 1 9.780542,-9.780908 z M 58.575506,76.564681 a 20.138649,20.138649 0 0 0 0.46114,0.624484 20.138649,20.138649 0 0 1 -0.46114,-0.624484 z m 32.849188,0 a 20.138649,20.138649 0 0 1 -0.46115,0.624484 20.138649,20.138649 0 0 0 0.46115,-0.624484 z m -0.79806,1.058225 a 20.138649,20.138649 0 0 1 -0.77321,0.898175 20.138649,20.138649 0 0 0 0.77321,-0.898175 z m -31.252718,3.66e-4 a 20.138649,20.138649 0 0 0 0.769557,0.894521 20.138649,20.138649 0 0 1 -0.769557,-0.894521 z m 30.131638,1.26066 a 20.138649,20.138649 0 0 1 -0.58538,0.585386 20.138649,20.138649 0 0 0 0.58538,-0.585386 z m -29.00252,0.0087 a 20.138649,20.138649 0 0 0 0.572597,0.572596 20.138649,20.138649 0 0 1 -0.572597,-0.572596 z m 28.02286,0.946775 a 20.138649,20.138649 0 0 1 -0.84848,0.730452 20.138649,20.138649 0 0 0 0.84848,-0.730452 z m -27.051236,7.3e-4 a 20.138649,20.138649 0 0 0 0.828748,0.712914 20.138649,20.138649 0 0 1 -0.828748,-0.712914 z m 25.838811,1.012915 a 20.138649,20.138649 0 0 1 -0.762609,0.563095 20.138649,20.138649 0 0 0 0.762609,-0.563095 z m -24.622365,0.0037 a 20.138649,20.138649 0 0 0 0.760418,0.560902 20.138649,20.138649 0 0 1 -0.760418,-0.560902 z m 23.435882,0.848479 a 20.138649,20.138649 0 0 1 -0.812671,0.510477 20.138649,20.138649 0 0 0 0.812671,-0.510477 z m -22.252322,6.53e-4 a 20.138649,20.138649 0 0 0 0.818882,0.514495 20.138649,20.138649 0 0 1 -0.818882,-0.514495 z m 1.11596,0.695375 a 20.138649,20.138649 0 0 0 1.102075,0.582461 20.138649,20.138649 0 0 1 -1.102075,-0.582461 z m 20.01419,0.0026 a 20.138649,20.138649 0 0 1 -1.099517,0.580999 20.138649,20.138649 0 0 0 1.099517,-0.580999 z m -1.516084,0.777955 a 20.138649,20.138649 0 0 1 -0.873326,0.381123 20.138649,20.138649 0 0 0 0.873326,-0.381123 z m -16.976177,7.3e-4 a 20.138649,20.138649 0 0 0 0.871867,0.380393 20.138649,20.138649 0 0 1 -0.871867,-0.380393 z m 1.234719,0.529478 a 20.138649,20.138649 0 0 0 1.200733,0.420222 20.138649,20.138649 0 0 1 -1.200733,-0.420222 z m 14.504915,3.66e-4 a 20.138649,20.138649 0 0 1 -1.193062,0.417664 20.138649,20.138649 0 0 0 1.193062,-0.417664 z m -12.936579,0.527646 a 20.138649,20.138649 0 0 0 0.952987,0.255795 20.138649,20.138649 0 0 1 -0.952987,-0.255795 z m 11.363126,0.0024 a 20.138649,20.138649 0 0 1 -0.960293,0.256882 20.138649,20.138649 0 0 0 0.960293,-0.256882 z m -1.338127,0.347145 a 20.138649,20.138649 0 0 1 -1.273816,0.241168 20.138649,20.138649 0 0 0 1.273816,-0.241168 z m -8.672985,0.0012 a 20.138649,20.138649 0 0 0 1.271624,0.240437 20.138649,20.138649 0 0 1 -1.271624,-0.240437 z m 1.521196,0.273326 a 20.138649,20.138649 0 0 0 1.099881,0.123872 20.138649,20.138649 0 0 1 -1.099881,-0.123872 z m 5.605012,0.0024 a 20.138649,20.138649 0 0 1 -1.081245,0.121628 20.138649,20.138649 0 0 0 1.081245,-0.121628 z m -4.1262,0.151638 a 20.138649,20.138649 0 0 0 1.332281,0.04965 20.138649,20.138649 0 0 0 1.332283,-0.04965 20.138649,20.138649 0 0 1 -1.332283,0.04965 20.138649,20.138649 0 0 1 -1.332281,-0.04965 z" /><path
       id="path5892"
       style="opacity:1;fill:none;fill-opacity:1;stroke:#00d1b2;stroke-width:12.1993;stroke-linecap:round;stroke-linejoin:round;stroke-dasharray:none;stroke-opacity:1"
       inkscape:transform-center-x="9.9447393"
       inkscape:transform-center-y="-8.3957111e-06"
       d="m 75.000052,112.86604 -1.36e-4,31.03474 29.834894,-17.22536 29.83487,-17.22535 1.6e-4,-34.450457 -1.7e-4,-34.449872 -23.63077,13.643061 M 107.79273,56.066997 134.66967,40.549742 104.83462,23.324654 74.999588,6.099571 45.164539,23.324656 15.330163,40.549744 38.960784,54.193058 m 3.24618,1.874173 -26.876801,-15.517487 1.56e-4,34.450448 1.57e-4,34.450438 29.834886,17.22537 29.834554,17.22478 1.4e-4,-27.28637" /></g></svg>
